<?xml version="1.0" standalone="no"?>
<!DOCTYPE svg PUBLIC "-//W3C//DTD SVG 20010904//EN"
 "http://www.w3.org/TR/2001/REC-SVG-20010904/DTD/svg10.dtd">
<svg version="1.0" xmlns="http://www.w3.org/2000/svg"
 width="618.000000pt" height="689.000000pt" viewBox="0 0 618.000000 689.000000"
 preserveAspectRatio="xMidYMid meet">

<g transform="translate(0.000000,689.000000) scale(0.100000,-0.100000)"
fill="#000000" stroke="none">
<path d="M2080 6455 l0 -335 1335 0 1335 0 0 -1252 c-1 -1721 -12 -2237 -56
-2490 -31 -183 -118 -412 -224 -588 -106 -176 -294 -395 -480 -558 -245 -215
-589 -364 -960 -417 -122 -17 -388 -20 -510 -5 -567 71 -1074 372 -1407 838
-192 268 -325 641 -361 1010 -5 52 -15 99 -21 105 -9 9 -106 13 -337 15 l-325
3 5 -43 c3 -24 13 -113 21 -198 51 -515 221 -956 523 -1360 105 -140 312 -354
447 -463 335 -270 739 -459 1184 -554 121 -26 138 -28 416 -27 580 0 883 65
1295 275 535 272 989 756 1236 1318 59 134 141 378 159 474 8 41 19 150 25
243 13 204 29 1727 30 2724 0 399 3 776 7 838 l6 112 329 0 328 0 0 335 0 335
-2000 0 -2000 0 0 -335z"/>
<path d="M2080 5120 l0 -330 665 0 665 0 0 -1071 0 -1071 -57 -107 c-106 -200
-164 -261 -318 -338 -156 -78 -300 -98 -430 -59 -271 80 -451 269 -511 534
l-21 97 -332 3 -331 2 0 -24 c0 -39 19 -175 35 -247 51 -233 185 -483 358
-666 184 -195 387 -302 682 -360 135 -26 415 -24 552 5 261 56 423 145 631
346 210 203 341 428 372 641 17 120 29 710 36 1863 l6 1112 -1001 0 -1001 0 0
-330z"/>
</g>
</svg>
